<svg width="30" height="30" viewBox="0 0 30 30" fill="none" xmlns="http://www.w3.org/2000/svg">
<g clip-path="url(#clip0_179_33)">
<path d="M30 15.364C29.9031 15.4094 29.9149 15.5137 29.8936 15.5912C29.5553 16.8213 28.7804 17.6021 27.5645 17.9224C27.3737 17.9724 27.3304 18.0625 27.3319 18.2503C27.3414 19.3008 27.3407 20.3505 27.3348 21.401C27.3312 22.0828 26.9276 22.4985 26.3442 22.4411C26.0969 22.4165 25.912 22.2787 25.7373 22.114C24.3563 20.814 22.9724 19.5168 21.5943 18.2145C21.4659 18.0931 21.3448 18.0275 21.1606 18.0305C20.3703 18.0424 19.58 18.0424 18.7897 18.0305C18.5909 18.0275 18.5226 18.0737 18.5277 18.2883C18.5417 18.8925 18.5432 19.4975 18.5263 20.1009C18.4778 21.816 17.1093 23.1988 15.4179 23.21C12.9883 23.2271 10.5579 23.2167 8.12831 23.2122C7.94119 23.2122 7.80104 23.2629 7.65794 23.3881C6.40388 24.49 5.14321 25.5837 3.88474 26.6811C3.56847 26.9568 3.22212 27.1066 2.81486 26.9106C2.412 26.7162 2.28945 26.3638 2.29386 25.9316C2.30266 25.0696 2.29166 24.2076 2.30046 23.3456C2.30266 23.1646 2.26304 23.0707 2.08179 22.9969C0.759478 22.4583 0.0491582 21.442 0.0249427 20.0108C-0.0132149 17.7429 -0.00147411 15.4728 0.0220075 13.2041C0.038885 11.5598 1.43458 10.066 3.31678 10.0876C4.99498 10.107 6.67392 10.0869 8.35212 10.0973C8.59648 10.0988 8.6838 10.0571 8.6794 9.7799C8.66105 8.64073 8.66912 7.50082 8.67206 6.36165C8.67793 4.39921 10.0377 3.00971 11.9676 3.00822C16.876 3.00375 21.7844 3.01865 26.6928 3.00003C28.382 2.99332 29.7292 4.22934 29.9472 5.67323C29.9501 5.69484 29.9816 5.71198 30 5.7306V15.364ZM25.5524 19.4766C25.5524 18.7226 25.5524 18.032 25.5524 17.3421C25.5524 16.5538 25.8753 16.2245 26.6524 16.2185C27.6738 16.2103 28.2227 15.6545 28.2235 14.6189C28.2249 11.8839 28.2235 9.14959 28.2235 6.41455C28.2235 6.21562 28.2088 6.01893 28.1523 5.82746C27.96 5.17704 27.4442 4.82389 26.6729 4.82389C23.2769 4.8224 19.8801 4.82389 16.4841 4.82389C14.9717 4.82389 13.4586 4.82016 11.9463 4.82538C11.0444 4.8291 10.4486 5.39682 10.4457 6.28342C10.4369 9.10713 10.4413 11.9316 10.4435 14.7553C10.4435 15.1345 10.5594 15.4757 10.8148 15.7603C11.142 16.1254 11.5618 16.223 12.0314 16.2223C15.1838 16.2171 18.3362 16.2238 21.4879 16.2148C21.9047 16.2133 22.2342 16.3415 22.538 16.6335C23.5154 17.5738 24.509 18.4961 25.5517 19.4773L25.5524 19.4766ZM4.06966 24.1212C4.18119 24.0318 4.25017 23.9796 4.31475 23.9238C5.10725 23.2338 5.9093 22.5559 6.68639 21.8488C7.03641 21.5299 7.41212 21.4048 7.87882 21.407C10.318 21.4219 12.7571 21.4159 15.1963 21.413C16.1921 21.4122 16.7571 20.8356 16.7593 19.829C16.7607 19.3239 16.7439 18.818 16.7659 18.3136C16.7769 18.067 16.6896 18.029 16.4731 18.0305C14.9805 18.0394 13.4873 18.0364 11.9947 18.035C10.0281 18.032 8.67426 16.6536 8.67059 14.6525C8.66912 13.8404 8.66105 13.0275 8.67646 12.2154C8.68086 11.9755 8.63096 11.9003 8.37927 11.9018C6.70107 11.9144 5.02286 11.907 3.34466 11.9085C2.34742 11.9092 1.78974 12.4747 1.78827 13.4909C1.78533 15.6009 1.78533 17.7109 1.78827 19.8208C1.78974 20.764 2.25423 21.2938 3.17002 21.4107C3.79521 21.4904 4.06379 21.7914 4.06892 22.427C4.07259 22.9701 4.06966 23.514 4.06966 24.1204V24.1212Z" fill="#0B84FF"/>
<path d="M19.332 9.77162C17.6436 9.77162 15.9558 9.77385 14.2673 9.77013C13.6561 9.76864 13.2569 9.36631 13.2914 8.80306C13.3178 8.3769 13.6209 8.0394 14.0399 7.97979C14.1646 7.96191 14.2923 7.95968 14.4192 7.95893C17.6979 7.95819 20.9772 7.95819 24.2558 7.95893C24.4408 7.95893 24.6271 7.95372 24.8047 8.02077C25.2039 8.17127 25.4358 8.57955 25.372 9.01615C25.311 9.4289 24.9566 9.74852 24.5141 9.76715C24.1634 9.7813 23.8119 9.77162 23.4604 9.77162C22.0845 9.77162 20.7086 9.77162 19.3328 9.77162H19.332Z" fill="#0B84FF"/>
<path d="M19.3108 13.5081C17.6421 13.5081 15.9735 13.5103 14.3048 13.5073C13.7001 13.5066 13.3083 13.1639 13.2892 12.6341C13.2731 12.1812 13.5607 11.8086 14.0039 11.7215C14.1272 11.6969 14.2556 11.6917 14.3819 11.6917C17.6803 11.6902 20.9787 11.6902 24.2764 11.6917C24.4026 11.6917 24.5311 11.6961 24.6543 11.7192C25.0887 11.8019 25.3779 12.1551 25.3801 12.5939C25.3823 13.0335 25.0961 13.3933 24.6653 13.4768C24.5325 13.5029 24.3938 13.5066 24.2581 13.5073C22.6092 13.5096 20.9596 13.5088 19.3108 13.5088V13.5081Z" fill="#0B84FF"/>
</g>
<defs>
<clipPath id="clip0_179_33">
<rect width="30" height="24" fill="white" transform="translate(0 3)"/>
</clipPath>
</defs>
</svg>
