<svg width="32" height="32" viewBox="0 0 32 32" fill="none" xmlns="http://www.w3.org/2000/svg">
<path d="M8.00001 16.0001H18M8.00001 20.0001H22M8.00001 24.0001H14M28.0001 26.0001V12.0001L18 2.00006H8.00001C6.93914 2.00006 5.92172 2.42149 5.17158 3.17164C4.42143 3.92178 4 4.9392 4 6.00007V26.0001C4 27.061 4.42143 28.0784 5.17158 28.8285C5.92172 29.5787 6.93914 30.0001 8.00001 30.0001H24C25.0609 30.0001 26.0783 29.5787 26.8285 28.8285C27.5786 28.0784 28.0001 27.061 28.0001 26.0001Z" stroke="#80C0FF" stroke-width="1.5" stroke-linecap="round" stroke-linejoin="round"/>
<path d="M18 1.99994V7.99995C18 9.06082 18.4214 10.0782 19.1716 10.8284C19.9217 11.5785 20.9391 12 22 12H28" stroke="#80C0FF" stroke-width="1.5" stroke-linecap="round" stroke-linejoin="round"/>
</svg>
