<svg width="16" height="14" viewBox="0 0 16 14" fill="none" xmlns="http://www.w3.org/2000/svg">
<path fill-rule="evenodd" clip-rule="evenodd" d="M1 4.52941C1 3.38942 1.3232 2.65742 1.81081 2.20463C2.30514 1.74562 3.04724 1.5 4.02941 1.5H11.0882C12.0704 1.5 12.8125 1.74562 13.3068 2.20463C13.7944 2.65742 14.1176 3.38942 14.1176 4.52941V9.47059C14.1176 10.6106 13.7944 11.3426 13.3068 11.7954C12.8125 12.2544 12.0704 12.5 11.0882 12.5H4.02941C3.04724 12.5 2.30514 12.2544 1.81081 11.7954C1.3232 11.3426 1 10.6106 1 9.47059V4.52941ZM4.02941 0.5C2.89394 0.5 1.87133 0.783795 1.13036 1.47184C0.382685 2.16611 0 3.19882 0 4.52941V9.47059C0 10.8012 0.382685 11.8339 1.13036 12.5282C1.87133 13.2162 2.89394 13.5 4.02941 13.5H11.0882C12.2237 13.5 13.2463 13.2162 13.9873 12.5282C14.735 11.8339 15.1176 10.8012 15.1176 9.47059V4.52941C15.1176 3.19882 14.735 2.16611 13.9873 1.47184C13.2463 0.783795 12.2237 0.5 11.0882 0.5H4.02941ZM11.4003 5.27349C11.6161 5.10115 11.6513 4.78654 11.4789 4.57077C11.3066 4.355 10.992 4.3198 10.7762 4.49213L8.56741 6.25634L8.56714 6.25656C8.02249 6.68992 7.08854 6.69 6.54375 6.25679L6.54319 6.25634L4.34207 4.49262C4.12658 4.31995 3.8119 4.35466 3.63923 4.57016C3.46656 4.78566 3.50127 5.10033 3.71677 5.273L5.91911 7.03771L5.92035 7.03869C6.82967 7.76262 8.28093 7.76262 9.19025 7.03869L9.19087 7.0382L11.4003 5.27349Z" fill="#53B746"/>
</svg>
