<svg width="19" height="24" viewBox="0 0 19 24" fill="none" xmlns="http://www.w3.org/2000/svg">
<path d="M17.9327 17.3729C17.8804 17.3637 17.8282 17.3545 17.7759 17.3452C17.7706 17.3618 17.7655 17.3784 17.7602 17.395C17.8122 17.41 17.8663 17.4199 17.9156 17.4412C17.9644 17.4624 18.0298 17.4836 18.0511 17.5242C18.4493 18.2799 18.6996 19.0824 18.7923 19.9323C18.8109 20.103 18.8117 20.2757 18.8293 20.4466C18.8864 21.003 18.6578 21.4405 18.2682 21.8118C17.7856 22.2718 17.2048 22.5719 16.5969 22.8239C15.5702 23.2495 14.4966 23.5063 13.4034 23.6851C11.4725 24.001 9.52949 24.0696 7.57971 23.9334C5.99061 23.8225 4.42293 23.5823 2.90637 23.0739C2.19928 22.8368 1.51597 22.5466 0.911641 22.0993C0.766614 21.992 0.63032 21.8704 0.502061 21.7432C0.135894 21.3801 -0.0250369 20.9485 0.00314267 20.4221C0.104645 18.5262 0.84641 16.9375 2.25229 15.6659C3.1842 14.823 4.28105 14.3016 5.51649 14.0755C5.5798 14.0639 5.66607 14.0846 5.71883 14.1223C6.78209 14.881 7.96251 15.2457 9.2709 15.2438C10.1102 15.2426 10.9307 15.175 11.7211 14.873C12.2188 14.6828 12.6813 14.4303 13.1158 14.1227C13.1688 14.0851 13.2548 14.0642 13.3181 14.0757C14.5098 14.2927 15.5639 14.7989 16.491 15.5795C16.9752 15.9872 17.3903 16.452 17.7362 16.9802C17.7791 17.0458 17.851 17.1084 17.7774 17.2023C17.7683 17.214 17.8031 17.2739 17.8302 17.2961C17.8591 17.32 17.903 17.3258 17.9403 17.3395C17.9378 17.3506 17.9353 17.3618 17.9327 17.3729ZM12.803 16.5792C12.803 16.5921 12.8031 16.605 12.8031 16.6179C12.8206 16.6325 12.8365 16.6495 12.8557 16.6613C13.0004 16.751 13.1714 16.7259 13.236 16.6067C13.2986 16.4912 13.2402 16.3908 13.0619 16.3073C13.0577 16.3053 13.0527 16.3039 13.0498 16.3007C13.0222 16.2695 12.995 16.2379 12.9676 16.2065C13.0121 16.1927 13.0562 16.1779 13.101 16.1654C13.1432 16.1536 13.1861 16.1444 13.2473 16.1296C13.2101 16.0899 13.2051 16.0804 13.1974 16.077C13.0379 16.0055 12.8893 16.0424 12.8377 16.1658C12.7941 16.2699 12.8458 16.3357 13.0191 16.4267C13.0617 16.4491 13.0852 16.5077 13.1175 16.5497C13.06 16.5562 13.0027 16.5634 12.9451 16.5689C12.8978 16.5734 12.8504 16.5758 12.803 16.5792ZM14.7843 16.3438C14.7843 16.279 14.7915 16.2101 14.7814 16.1438C14.7761 16.1092 14.7404 16.0793 14.7185 16.0473C14.6994 16.0767 14.6649 16.1056 14.6639 16.1357C14.6585 16.2975 14.6633 16.4597 14.6606 16.6216C14.6591 16.7101 14.6972 16.7265 14.7726 16.6954C14.7815 16.648 14.7902 16.602 14.8001 16.5496C14.9069 16.6124 14.9581 16.7632 15.1555 16.6772C15.0523 16.6066 14.9655 16.5472 14.8788 16.4879C14.8801 16.4652 14.8814 16.4424 14.8827 16.4198C14.9511 16.3687 15.0196 16.3176 15.088 16.2665C15.0799 16.2527 15.0718 16.2389 15.0636 16.2252C14.977 16.2619 14.8904 16.2987 14.7843 16.3438ZM13.8998 16.7147C14.0365 16.7141 14.1379 16.6146 14.1392 16.4795C14.1406 16.3476 14.0362 16.2401 13.9046 16.2378C13.7673 16.2354 13.6551 16.3462 13.6572 16.4821C13.6594 16.6153 13.7636 16.7152 13.8998 16.7147ZM13.4915 16.364C13.5472 16.3566 13.5868 16.3513 13.6698 16.3401C13.6208 16.2935 13.5973 16.2673 13.5698 16.2462C13.5473 16.2291 13.5184 16.2205 13.4955 16.2038C13.4627 16.18 13.4327 16.1522 13.4015 16.1261C13.3481 16.1905 13.2943 16.2546 13.2424 16.3202C13.2404 16.3228 13.2567 16.3488 13.264 16.3486C13.387 16.3448 13.3549 16.4361 13.3599 16.5036C13.3735 16.6856 13.4417 16.7358 13.6343 16.6927C13.6235 16.6636 13.6159 16.6133 13.6026 16.6116C13.4312 16.5912 13.5116 16.4641 13.4915 16.364ZM14.6091 16.5849C14.5642 16.5817 14.5191 16.5799 14.4745 16.5748C14.4241 16.5691 14.3593 16.5764 14.3287 16.548C14.3037 16.5249 14.3 16.4395 14.3228 16.4142C14.3508 16.3831 14.4159 16.3844 14.4656 16.3745C14.5089 16.3658 14.553 16.361 14.6274 16.3499C14.4574 16.212 14.3312 16.2115 14.2317 16.316C14.1424 16.4096 14.1422 16.549 14.2311 16.6417C14.3288 16.7436 14.4737 16.7391 14.6091 16.5849ZM13.834 17.1228C13.6723 17.1368 13.6142 17.1881 13.6301 17.3134C13.6452 17.4323 13.7033 17.453 13.9584 17.4227C13.9584 17.3287 13.9624 17.2325 13.9565 17.1368C13.9541 17.0974 13.9306 17.0593 13.9166 17.0206C13.8911 17.0522 13.8655 17.0838 13.834 17.1228ZM17.0175 17.0075C17.0175 17.1867 17.0175 17.3085 17.0175 17.4773C17.1408 17.4335 17.2576 17.417 17.3361 17.3533C17.375 17.3218 17.3757 17.1639 17.3372 17.1327C17.2585 17.0688 17.1418 17.052 17.0175 17.0075ZM15.5319 17.0099C15.4242 17.0776 15.4208 17.3679 15.5154 17.442C15.5345 17.4032 15.5527 17.3659 15.5697 17.3313C15.6304 17.3764 15.6825 17.4152 15.7347 17.4539C15.7434 17.4435 15.7523 17.4331 15.7611 17.4227C15.7238 17.3666 15.6864 17.3105 15.6498 17.2554C15.6812 17.2162 15.7104 17.1797 15.7395 17.1433C15.7317 17.134 15.7238 17.1248 15.7159 17.1155C15.6618 17.1481 15.6077 17.1806 15.5444 17.2186C15.5404 17.1517 15.5367 17.0895 15.5319 17.0099ZM13.6003 17.2918C13.588 17.1859 13.5408 17.1136 13.4413 17.1341C13.3815 17.1465 13.3038 17.2018 13.2871 17.2546C13.2727 17.2998 13.3187 17.3938 13.3648 17.4215C13.4294 17.4602 13.5217 17.4673 13.5865 17.3624C13.5084 17.3557 13.4458 17.3504 13.3832 17.3451C13.3838 17.333 13.3844 17.3209 13.385 17.3089C13.4551 17.3033 13.5252 17.2978 13.6003 17.2918ZM16.583 17.0247C16.5607 17.0227 16.5383 17.0207 16.516 17.0187C16.5006 17.1554 16.5014 17.2932 16.5501 17.4463C16.5755 17.4081 16.601 17.3699 16.6265 17.3316C16.6819 17.3737 16.7343 17.4135 16.7866 17.4533C16.7952 17.4433 16.8038 17.4334 16.8123 17.4234C16.7758 17.3674 16.7392 17.3114 16.7036 17.2569C16.7371 17.2157 16.7655 17.1808 16.7939 17.1458C16.7868 17.1359 16.7797 17.126 16.7726 17.1161C16.7162 17.1513 16.6598 17.1866 16.5961 17.2264C16.5915 17.1565 16.5873 17.0906 16.583 17.0247ZM13.0123 17.1424C12.9444 17.0208 12.8483 17.0302 12.7622 17.058C12.6646 17.0895 12.6409 17.1768 12.6511 17.2734C12.6611 17.3691 12.7125 17.4291 12.8083 17.4381C12.8891 17.4458 12.9755 17.45 13.0036 17.3343C12.912 17.3032 12.7517 17.4492 12.7432 17.2501C12.7341 17.0381 12.9092 17.1798 13.0123 17.1424ZM17.7366 17.2934C17.723 17.1853 17.6776 17.1155 17.5772 17.134C17.5214 17.1443 17.4398 17.1966 17.432 17.2409C17.4221 17.2976 17.4579 17.3917 17.5048 17.4217C17.5652 17.4604 17.6616 17.4698 17.7167 17.3615C17.6419 17.3555 17.5787 17.3504 17.5155 17.3453C17.5162 17.3329 17.5169 17.3205 17.5176 17.3081C17.5842 17.3037 17.6508 17.2992 17.7366 17.2934ZM12.7695 16.2563C12.6246 16.2521 12.6264 16.2521 12.6378 16.5981C12.6407 16.6849 12.6611 16.7315 12.7636 16.6958C12.7656 16.6673 12.7691 16.6402 12.7692 16.6131C12.7698 16.4977 12.7695 16.3824 12.7695 16.2563ZM15.2482 17.3659C15.2314 17.3607 15.2147 17.3555 15.198 17.3503C15.1939 17.2918 15.1926 17.2329 15.1838 17.1751C15.1813 17.1587 15.1579 17.1358 15.1422 17.1342C15.1292 17.1329 15.1054 17.1558 15.1 17.1724C15.0489 17.3306 15.126 17.4328 15.2898 17.4288C15.3201 17.4281 15.3505 17.4328 15.3903 17.4357C15.3903 17.3618 15.3948 17.297 15.3885 17.2333C15.385 17.1984 15.3632 17.1652 15.3497 17.1312C15.3345 17.1633 15.3182 17.1949 15.3042 17.2276C15.2846 17.2733 15.2667 17.3197 15.2482 17.3659ZM16.2292 17.1374C16.2062 17.1344 16.1832 17.1314 16.1603 17.1283C16.1586 17.2049 16.1377 17.2873 16.1592 17.3567C16.2093 17.5183 16.3454 17.3922 16.4551 17.4448C16.444 17.3237 16.435 17.226 16.4261 17.1282C16.4084 17.1298 16.3907 17.1314 16.3731 17.133C16.3686 17.1864 16.3719 17.2421 16.3566 17.2921C16.3485 17.319 16.3085 17.3361 16.2829 17.3577C16.265 17.3343 16.236 17.3127 16.2317 17.2871C16.2233 17.2385 16.2292 17.1874 16.2292 17.1374ZM15.7845 17.0579C15.9276 17.1135 15.8912 17.2302 15.8939 17.3292C15.8943 17.3431 15.8895 17.3596 15.8954 17.3704C15.9085 17.3944 15.9268 17.4155 15.9429 17.4377C15.9583 17.4146 15.9852 17.3924 15.987 17.3683C15.9954 17.255 15.9452 17.12 16.1101 17.0579C16.0016 17.0579 15.8931 17.0579 15.7845 17.0579ZM15.0475 17.0618C14.9385 17.0618 14.8296 17.0618 14.7207 17.0618C14.7195 17.072 14.7183 17.0822 14.7171 17.0923C14.7562 17.109 14.7954 17.1258 14.8464 17.1475C14.8464 17.2161 14.843 17.2901 14.8483 17.3634C14.8501 17.3891 14.8732 17.4134 14.8865 17.4383C14.9046 17.4132 14.9361 17.3894 14.9385 17.3629C14.9485 17.2539 14.897 17.1242 15.0475 17.0618ZM14.3838 17.4238C14.2381 17.2774 14.2374 17.2322 14.3659 17.1566C14.3358 17.1319 14.3084 17.0993 14.2734 17.0844C14.2507 17.0746 14.2113 17.082 14.1892 17.0965C14.0948 17.1587 14.2052 17.2217 14.1937 17.2908C14.1719 17.4232 14.2467 17.4626 14.3838 17.4238ZM13.0532 17.137C13.0532 17.2266 13.051 17.3091 13.0551 17.3912C13.0558 17.4072 13.0786 17.4264 13.0958 17.4351C13.103 17.4387 13.1294 17.4219 13.1345 17.4092C13.1708 17.3201 13.2038 17.2297 13.2388 17.137C13.196 17.137 13.1342 17.137 13.0532 17.137ZM14.0212 17.4325C14.0441 17.4353 14.0669 17.4381 14.0897 17.441C14.0949 17.3561 14.1028 17.2713 14.1031 17.1865C14.1032 17.1682 14.0757 17.1498 14.0609 17.1314C14.0477 17.1511 14.0242 17.1702 14.023 17.1906C14.0186 17.271 14.0212 17.3518 14.0212 17.4325ZM12.7005 16.2352C12.7397 16.1868 12.7866 16.1526 12.7817 16.129C12.7749 16.0958 12.7298 16.0705 12.701 16.0418C12.6758 16.0692 12.6331 16.095 12.6306 16.1243C12.6281 16.1529 12.6667 16.185 12.7005 16.2352Z" fill="#53B745"/>
<path d="M4.15469 5.67004C4.24503 3.5621 5.20475 2.01785 7.04186 0.976549C7.08249 1.19601 7.11915 1.38546 7.15246 1.57549C7.2591 2.18383 7.36426 2.7924 7.4705 3.4008C7.50967 3.62507 7.6362 3.75757 7.83446 3.78432C8.00577 3.80745 8.18213 3.71147 8.24388 3.53771C8.27342 3.45459 8.27962 3.35329 8.26455 3.26571C8.11565 2.40085 7.96348 1.53649 7.80296 0.673716C7.77587 0.528103 7.80709 0.425903 7.90941 0.325628C8.12204 0.117239 8.37105 0.00153514 8.66998 0.00089343C9.1675 -0.000194693 9.66502 -0.000334195 10.1626 0.000726026C10.4778 0.00139564 10.7378 0.126669 10.9521 0.355147C11.0267 0.434692 11.0577 0.515966 11.0367 0.630944C10.8795 1.49433 10.7299 2.35911 10.5757 3.22308C10.5281 3.49022 10.6076 3.68011 10.8079 3.75732C11.0585 3.85394 11.3026 3.71399 11.3574 3.42923C11.4327 3.03712 11.4969 2.64288 11.5656 2.24951C11.6334 1.86072 11.7005 1.47178 11.7691 1.0831C11.7737 1.05699 11.7881 1.03257 11.8068 0.984751C13.6305 2.01668 14.5886 3.56165 14.6808 5.66954C14.7464 5.66954 14.8186 5.66725 14.8906 5.66993C15.275 5.68424 15.5919 5.96534 15.6396 6.33293C15.6892 6.71497 15.474 7.06158 15.1051 7.17525C15.0095 7.20471 14.9038 7.21121 14.8027 7.21127C11.2131 7.213 7.6234 7.20837 4.03376 7.21693C3.42285 7.21838 3.07281 6.70161 3.22325 6.21245C3.31982 5.89843 3.60563 5.68279 3.94292 5.6704C4.01186 5.66789 4.08103 5.67004 4.15469 5.67004Z" fill="#53B745"/>
<path d="M14.4579 8.13742C14.4683 8.59511 14.4283 9.02397 14.3298 9.44585C13.9744 10.9687 13.2069 12.2331 11.93 13.1534C10.2815 14.3414 8.32006 14.2978 6.72856 13.0202C5.25722 11.839 4.48035 10.2827 4.37746 8.39659C4.36033 8.08277 4.35952 8.13868 4.62044 8.13854C7.82429 8.13687 11.0281 8.13745 14.232 8.13745C14.3009 8.13743 14.3698 8.13742 14.4579 8.13742Z" fill="#53B745"/>
<path d="M12.8047 16.5793C12.8521 16.576 12.8995 16.5736 12.9468 16.5691C13.0043 16.5636 13.0617 16.5564 13.1192 16.5499C13.0869 16.5079 13.0634 16.4493 13.0208 16.4269C12.8475 16.3359 12.7958 16.2701 12.8394 16.166C12.891 16.0426 13.0396 16.0057 13.1991 16.0772C13.2068 16.0806 13.2117 16.0901 13.2489 16.1298C13.1878 16.1446 13.1449 16.1539 13.1026 16.1656C13.0579 16.178 13.0137 16.1929 12.9693 16.2067C12.9966 16.2381 13.0239 16.2697 13.0515 16.3009C13.0543 16.3041 13.0594 16.3055 13.0636 16.3075C13.2419 16.391 13.3003 16.4914 13.2377 16.6069C13.1731 16.7262 13.0021 16.7511 12.8574 16.6615C12.8382 16.6497 12.8223 16.6327 12.8048 16.6181C12.8048 16.6051 12.8047 16.5922 12.8047 16.5793Z" fill="#53B745"/>
<path d="M14.7839 16.3473C14.89 16.3022 14.9766 16.2655 15.0632 16.2287C15.0714 16.2424 15.0795 16.2562 15.0876 16.27C15.0192 16.3211 14.9507 16.3722 14.8823 16.4233C14.881 16.446 14.8797 16.4687 14.8784 16.4914C14.9651 16.5507 15.0519 16.61 15.1551 16.6807C14.9577 16.7667 14.9065 16.6159 14.7997 16.5532C14.7898 16.6055 14.7811 16.6515 14.7722 16.6989C14.6968 16.73 14.6587 16.7136 14.6602 16.6251C14.6629 16.4632 14.6581 16.301 14.6635 16.1392C14.6645 16.1091 14.699 16.0802 14.7181 16.0508C14.74 16.0828 14.7757 16.1127 14.781 16.1473C14.7911 16.2136 14.7839 16.2826 14.7839 16.3473Z" fill="#53B745"/>
<path d="M13.8988 16.7152C13.7626 16.7158 13.6584 16.6159 13.6563 16.4827C13.6541 16.3468 13.7663 16.2359 13.9036 16.2383C14.0353 16.2406 14.1397 16.3482 14.1383 16.48C14.1368 16.6151 14.0356 16.7147 13.8988 16.7152ZM13.9009 16.3133C13.848 16.3874 13.7907 16.4324 13.7932 16.4738C13.7958 16.517 13.8561 16.5566 13.8912 16.5978C13.9323 16.5573 13.997 16.5218 14.007 16.4747C14.0146 16.4388 13.953 16.3881 13.9009 16.3133Z" fill="#53B745"/>
<path d="M13.4905 16.3648C13.5105 16.4649 13.4302 16.5919 13.6016 16.6125C13.6149 16.614 13.6225 16.6643 13.6333 16.6936C13.4406 16.7366 13.3725 16.6864 13.3589 16.5044C13.3538 16.437 13.3859 16.3457 13.2629 16.3494C13.2556 16.3496 13.2393 16.3236 13.2414 16.321C13.2933 16.2554 13.3471 16.1913 13.4005 16.127C13.4317 16.153 13.4617 16.1808 13.4945 16.2047C13.5174 16.2213 13.5463 16.2299 13.5687 16.247C13.5963 16.2681 13.6198 16.2944 13.6687 16.341C13.5858 16.3521 13.5462 16.3574 13.4905 16.3648Z" fill="#53B745"/>
<path d="M14.6115 16.5894C14.4762 16.7435 14.3312 16.748 14.2335 16.6462C14.1446 16.5535 14.1448 16.4141 14.2341 16.3205C14.3336 16.216 14.4598 16.2165 14.6298 16.3544C14.5554 16.3655 14.5113 16.3703 14.468 16.379C14.4184 16.3889 14.3532 16.3876 14.3252 16.4187C14.3024 16.444 14.3061 16.5294 14.3311 16.5525C14.3617 16.5809 14.4266 16.5736 14.4769 16.5793C14.5216 16.5844 14.5666 16.5861 14.6115 16.5894Z" fill="#53B745"/>
<path d="M13.8354 17.1217C13.8669 17.0827 13.8924 17.0511 13.9179 17.0195C13.9319 17.0582 13.9554 17.0963 13.9578 17.1357C13.9637 17.2314 13.9597 17.3277 13.9597 17.4216C13.7046 17.4519 13.6465 17.4312 13.6314 17.3124C13.6156 17.187 13.6736 17.1358 13.8354 17.1217Z" fill="#53B745"/>
<path d="M17.0166 17.0098C17.1408 17.0542 17.2576 17.0711 17.3363 17.1349C17.3747 17.1661 17.3741 17.3241 17.3352 17.3556C17.2567 17.4192 17.1399 17.4357 17.0166 17.4796C17.0166 17.3107 17.0166 17.1889 17.0166 17.0098ZM17.0994 17.1361C17.0994 17.2159 17.0994 17.2836 17.0994 17.3529C17.1967 17.3692 17.2813 17.368 17.2825 17.2469C17.2838 17.1268 17.2005 17.1204 17.0994 17.1361Z" fill="#53B745"/>
<path d="M15.5325 17.0117C15.5373 17.0914 15.5411 17.1535 15.5451 17.2204C15.6084 17.1824 15.6625 17.1499 15.7166 17.1174C15.7245 17.1266 15.7323 17.1359 15.7402 17.1452C15.711 17.1816 15.6819 17.218 15.6505 17.2573C15.6871 17.3124 15.7244 17.3684 15.7617 17.4245C15.7529 17.4349 15.7441 17.4454 15.7353 17.4558C15.6832 17.417 15.631 17.3783 15.5704 17.3332C15.5534 17.3678 15.5351 17.4051 15.5161 17.4439C15.4215 17.3697 15.4248 17.0794 15.5325 17.0117Z" fill="#53B745"/>
<path d="M13.6001 17.294C13.525 17.2999 13.4549 17.3055 13.3848 17.311C13.3842 17.3231 13.3836 17.3352 13.383 17.3472C13.4456 17.3526 13.5082 17.3579 13.5863 17.3646C13.5215 17.4695 13.4292 17.4624 13.3646 17.4237C13.3185 17.396 13.2725 17.302 13.2868 17.2567C13.3036 17.204 13.3813 17.1487 13.4411 17.1363C13.5407 17.1158 13.5878 17.1881 13.6001 17.294Z" fill="#53B745"/>
<path d="M16.5836 17.0235C16.5879 17.0894 16.5922 17.1553 16.5967 17.2252C16.6605 17.1854 16.7169 17.1502 16.7733 17.115C16.7804 17.1249 16.7875 17.1348 16.7946 17.1447C16.7662 17.1796 16.7378 17.2145 16.7043 17.2557C16.7399 17.3103 16.7764 17.3663 16.813 17.4223C16.8044 17.4322 16.7958 17.4422 16.7873 17.4521C16.7349 17.4123 16.6826 17.3726 16.6271 17.3304C16.6017 17.3687 16.5762 17.4069 16.5507 17.4452C16.502 17.2921 16.5013 17.1543 16.5167 17.0176C16.539 17.0196 16.5613 17.0215 16.5836 17.0235Z" fill="#53B745"/>
<path d="M13.0118 17.145C12.9087 17.1824 12.7336 17.0406 12.7427 17.2527C12.7512 17.4518 12.9115 17.3058 13.0031 17.3369C12.9751 17.4526 12.8886 17.4484 12.8078 17.4407C12.712 17.4317 12.6607 17.3717 12.6506 17.276C12.6405 17.1794 12.6641 17.0921 12.7617 17.0606C12.8478 17.0328 12.9439 17.0233 13.0118 17.145Z" fill="#53B745"/>
<path d="M17.7359 17.2952C17.6501 17.301 17.5835 17.3054 17.5169 17.3099C17.5162 17.3223 17.5155 17.3347 17.5148 17.3471C17.578 17.3522 17.6412 17.3573 17.716 17.3633C17.6609 17.4716 17.5645 17.4622 17.5041 17.4235C17.4572 17.3935 17.4214 17.2994 17.4314 17.2427C17.4391 17.1984 17.5207 17.1461 17.5765 17.1358C17.677 17.1173 17.7223 17.1871 17.7359 17.2952Z" fill="#53B745"/>
<path d="M12.7692 16.2547C12.7692 16.3808 12.7695 16.4961 12.7689 16.6115C12.7688 16.6386 12.7653 16.6657 12.7633 16.6942C12.6608 16.7299 12.6404 16.6833 12.6375 16.5966C12.6261 16.2505 12.6243 16.2505 12.7692 16.2547Z" fill="#53B745"/>
<path d="M15.2478 17.3675C15.2664 17.3214 15.2843 17.2749 15.3038 17.2292C15.3178 17.1966 15.3341 17.1649 15.3493 17.1328C15.3628 17.1668 15.3846 17.2 15.3881 17.235C15.3944 17.2987 15.3899 17.3634 15.3899 17.4374C15.3501 17.4345 15.3197 17.4298 15.2894 17.4305C15.1256 17.4345 15.0485 17.3323 15.0996 17.174C15.105 17.1574 15.1288 17.1345 15.1419 17.1359C15.1575 17.1374 15.1809 17.1604 15.1834 17.1768C15.1922 17.2345 15.1935 17.2935 15.1976 17.352C15.2144 17.3572 15.2311 17.3623 15.2478 17.3675Z" fill="#53B745"/>
<path d="M16.2281 17.142C16.2281 17.192 16.2222 17.243 16.2305 17.2916C16.2348 17.3173 16.2638 17.3388 16.2817 17.3622C16.3073 17.3407 16.3473 17.3236 16.3555 17.2967C16.3707 17.2466 16.3675 17.1909 16.3719 17.1376C16.3896 17.136 16.4072 17.1344 16.4249 17.1328C16.4339 17.2305 16.4428 17.3283 16.4539 17.4494C16.3442 17.3967 16.2082 17.5228 16.1581 17.3613C16.1366 17.2919 16.1575 17.2094 16.1591 17.1329C16.1821 17.1359 16.2051 17.139 16.2281 17.142Z" fill="#53B745"/>
<path d="M15.7842 17.0586C15.8927 17.0586 16.0012 17.0586 16.1097 17.0586C15.9448 17.1206 15.9951 17.2556 15.9866 17.369C15.9848 17.3931 15.9579 17.4153 15.9425 17.4384C15.9264 17.4161 15.9081 17.395 15.8951 17.3711C15.8892 17.3603 15.894 17.3437 15.8936 17.3298C15.8908 17.2309 15.9273 17.1141 15.7842 17.0586Z" fill="#53B745"/>
<path d="M15.0472 17.0605C14.8967 17.123 14.9482 17.2527 14.9382 17.3617C14.9358 17.3882 14.9043 17.412 14.8862 17.4371C14.8729 17.4122 14.8498 17.388 14.848 17.3622C14.8427 17.2889 14.8461 17.2149 14.8461 17.1463C14.7951 17.1246 14.756 17.1078 14.7168 17.0911C14.718 17.0809 14.7192 17.0708 14.7204 17.0606C14.8293 17.0605 14.9382 17.0605 15.0472 17.0605Z" fill="#53B745"/>
<path d="M14.3844 17.4259C14.2473 17.4647 14.1725 17.4253 14.1944 17.2929C14.2058 17.2238 14.0955 17.1608 14.1899 17.0986C14.212 17.0841 14.2514 17.0767 14.2741 17.0865C14.309 17.1014 14.3364 17.134 14.3666 17.1587C14.238 17.2343 14.2387 17.2794 14.3844 17.4259Z" fill="#53B745"/>
<path d="M13.0523 17.1387C13.1333 17.1387 13.1951 17.1387 13.238 17.1387C13.203 17.2314 13.1699 17.3218 13.1337 17.4109C13.1286 17.4236 13.1021 17.4404 13.0949 17.4368C13.0777 17.4281 13.055 17.4089 13.0542 17.3929C13.0502 17.3107 13.0523 17.2283 13.0523 17.1387Z" fill="#53B745"/>
<path d="M14.0193 17.4359C14.0193 17.3552 14.0167 17.2744 14.0211 17.1939C14.0222 17.1736 14.0458 17.1545 14.059 17.1348C14.0738 17.1531 14.1013 17.1715 14.1012 17.1899C14.1009 17.2747 14.093 17.3595 14.0878 17.4443C14.065 17.4415 14.0421 17.4387 14.0193 17.4359Z" fill="#53B745"/>
<path d="M12.7009 16.2344C12.6671 16.1842 12.6285 16.1521 12.631 16.1235C12.6335 16.0942 12.6763 16.0684 12.7014 16.041C12.7302 16.0697 12.7753 16.095 12.7822 16.1282C12.787 16.1518 12.7401 16.186 12.7009 16.2344Z" fill="#53B745"/>
<path d="M13.9027 16.3145C13.9549 16.3892 14.0165 16.4398 14.0088 16.4758C13.9988 16.5229 13.9341 16.5584 13.893 16.599C13.8579 16.5577 13.7976 16.518 13.795 16.4749C13.7925 16.4335 13.8498 16.3885 13.9027 16.3145Z" fill="#53B745"/>
<path d="M17.0996 17.139C17.2007 17.1233 17.284 17.1297 17.2828 17.2498C17.2815 17.3709 17.1969 17.3721 17.0996 17.3559C17.0996 17.2866 17.0996 17.2188 17.0996 17.139Z" fill="#53B745"/>
<path d="M18.18 17.7842C18.18 17.7842 17.799 16.941 17.2826 16.3723C16.7663 15.8035 13.0518 15.3613 13.0518 15.3613L11.0127 16.5984L11.7729 19.6192L14.5964 19.783L18.18 17.7842Z" fill="#53B745"/>
</svg>
