<svg width="32" height="32" viewBox="0 0 32 32" fill="none" xmlns="http://www.w3.org/2000/svg">
<path d="M11.4989 30.9996H20.4979C27.9971 30.9996 30.9967 27.9996 30.9967 20.4997V11.4999C30.9967 3.99996 27.9971 1 20.4979 1H11.4989C3.99967 1 1 3.99996 1 11.4999V20.4997C1 27.9996 3.99967 30.9996 11.4989 30.9996Z" stroke="#80C0FF" stroke-width="1.5" stroke-linecap="round" stroke-linejoin="round"/>
<path d="M11.4987 12.9998C13.1554 12.9998 14.4984 11.6567 14.4984 9.99984C14.4984 8.343 13.1554 6.99988 11.4987 6.99988C9.84202 6.99988 8.49902 8.343 8.49902 9.99984C8.49902 11.6567 9.84202 12.9998 11.4987 12.9998Z" stroke="#80C0FF" stroke-width="1.5" stroke-linecap="round" stroke-linejoin="round"/>
<path d="M2.0083 26.4255L9.40249 21.4606C10.5874 20.6656 12.2972 20.7556 13.3621 21.6706L13.857 22.1056C15.0269 23.1105 16.9167 23.1105 18.0865 22.1056L24.3259 16.7506C25.4957 15.7456 27.3855 15.7456 28.5554 16.7506L31.0001 18.8506" stroke="#80C0FF" stroke-width="1.5" stroke-linecap="round" stroke-linejoin="round"/>
</svg>
