<svg width="16" height="18" viewBox="0 0 16 18" fill="none" xmlns="http://www.w3.org/2000/svg">
<path fill-rule="evenodd" clip-rule="evenodd" d="M2.66914 6.90889C3.33511 3.98208 5.82349 2.49827 8.38702 2.5C10.9507 2.50174 13.4376 3.98913 14.1 6.91614L14.1001 6.91618C14.8919 10.4142 12.7277 13.4624 10.6347 15.4722L10.6333 15.4736C9.37846 16.6847 7.39184 16.6867 6.12733 15.4727C4.042 13.4627 1.87745 10.4071 2.66914 6.90889ZM8.38803 1C11.5153 1.00212 14.7176 2.84971 15.563 6.58499C16.5406 10.9033 13.8427 14.4712 11.6737 16.5542C9.83595 18.3265 6.93098 18.3242 5.08789 16.5541L5.08694 16.5532C2.92586 14.4704 0.228827 10.8949 1.20625 6.5773L1.20642 6.57653C2.05613 2.84127 5.26063 0.99789 8.38803 1ZM6.74069 8.14312C6.74069 7.23169 7.47955 6.49284 8.39097 6.49284C9.3024 6.49284 10.0413 7.23169 10.0413 8.14312C10.0413 9.05454 9.3024 9.7934 8.39097 9.7934C7.47955 9.7934 6.74069 9.05454 6.74069 8.14312ZM8.39097 4.99284C6.65112 4.99284 5.24069 6.40327 5.24069 8.14312C5.24069 9.88297 6.65112 11.2934 8.39097 11.2934C10.1308 11.2934 11.5413 9.88297 11.5413 8.14312C11.5413 6.40327 10.1308 4.99284 8.39097 4.99284Z" fill="#53B746"/>
<path d="M8.38702 2.5L8.38695 2.6L8.38702 2.5ZM2.66914 6.90889L2.57163 6.88671L2.5716 6.88682L2.66914 6.90889ZM14.1 6.91614L14.1978 6.89501L14.1976 6.89407L14.1 6.91614ZM14.1001 6.91618L14.0023 6.93731L14.0025 6.93826L14.1001 6.91618ZM10.6347 15.4722L10.5654 15.4001L10.5654 15.4002L10.6347 15.4722ZM10.6333 15.4736L10.564 15.4015L10.5639 15.4016L10.6333 15.4736ZM6.12733 15.4727L6.05793 15.5447L6.05807 15.5448L6.12733 15.4727ZM15.563 6.58499L15.4655 6.60707L15.4655 6.60707L15.563 6.58499ZM8.38803 1L8.3881 0.900002L8.38803 1ZM11.6737 16.5542L11.6044 16.482L11.6043 16.4822L11.6737 16.5542ZM5.08789 16.5541L5.01855 16.6262L5.01862 16.6263L5.08789 16.5541ZM5.08694 16.5532L5.01754 16.6252L5.0176 16.6253L5.08694 16.5532ZM1.20625 6.5773L1.10872 6.55518L1.10872 6.55522L1.20625 6.5773ZM1.20642 6.57653L1.10891 6.55435L1.1089 6.55441L1.20642 6.57653ZM8.38709 2.4C5.78572 2.39824 3.24982 3.90623 2.57163 6.88671L2.76664 6.93108C3.42041 4.05793 5.86125 2.5983 8.38695 2.6L8.38709 2.4ZM14.1976 6.89407C13.523 3.91339 10.9886 2.40176 8.38709 2.4L8.38695 2.6C10.9129 2.60171 13.3522 4.06488 14.0025 6.93822L14.1976 6.89407ZM14.1978 6.89504L14.1978 6.89501L14.0023 6.93728L14.0023 6.93731L14.1978 6.89504ZM10.704 15.5444C12.8021 13.5296 15.0018 10.4467 14.1976 6.8941L14.0025 6.93826C14.782 10.3816 12.6532 13.3952 10.5654 15.4001L10.704 15.5444ZM10.7027 15.5456L10.7041 15.5443L10.5654 15.4002L10.564 15.4015L10.7027 15.5456ZM6.05807 15.5448C7.36121 16.7959 9.40908 16.7942 10.7028 15.5455L10.5639 15.4016C9.34784 16.5753 7.42248 16.5775 6.19658 15.4005L6.05807 15.5448ZM2.5716 6.88682C1.76757 10.4395 3.96748 13.5298 6.05793 15.5447L6.19672 15.4007C4.11652 13.3957 1.98732 10.3746 2.76667 6.93097L2.5716 6.88682ZM15.6606 6.56292C14.8029 2.77358 11.5528 0.902143 8.3881 0.900002L8.38797 1.1C11.4779 1.10209 14.6323 2.92584 15.4655 6.60707L15.6606 6.56292ZM11.7429 16.6263C13.917 14.5386 16.6505 10.936 15.6606 6.56291L15.4655 6.60707C16.4307 10.8706 13.7685 14.4039 11.6044 16.482L11.7429 16.6263ZM5.01862 16.6263C6.9003 18.4334 9.86652 18.4359 11.7431 16.6261L11.6043 16.4822C9.80538 18.217 6.96166 18.2151 5.15715 16.482L5.01862 16.6263ZM5.0176 16.6253L5.01855 16.6262L5.15722 16.4821L5.15628 16.4812L5.0176 16.6253ZM1.10872 6.55522C0.118922 10.9275 2.85151 14.5377 5.01754 16.6252L5.15633 16.4812C3.00021 14.4032 0.338732 10.8624 1.30378 6.59938L1.10872 6.55522ZM1.1089 6.55441L1.10872 6.55518L1.30377 6.59942L1.30395 6.59865L1.1089 6.55441ZM8.3881 0.900002C5.22331 0.897864 1.97092 2.76503 1.10891 6.55435L1.30393 6.59871C2.14134 2.9175 5.29795 1.09791 8.38797 1.1L8.3881 0.900002ZM8.39097 6.39284C7.42432 6.39284 6.64069 7.17646 6.64069 8.14312H6.84069C6.84069 7.28692 7.53478 6.59284 8.39097 6.59284V6.39284ZM10.1413 8.14312C10.1413 7.17646 9.35763 6.39284 8.39097 6.39284V6.59284C9.24717 6.59284 9.94125 7.28692 9.94125 8.14312H10.1413ZM8.39097 9.8934C9.35763 9.8934 10.1413 9.10977 10.1413 8.14312H9.94125C9.94125 8.99931 9.24717 9.69339 8.39097 9.69339V9.8934ZM6.64069 8.14312C6.64069 9.10977 7.42432 9.8934 8.39097 9.8934V9.69339C7.53478 9.69339 6.84069 8.99931 6.84069 8.14312H6.64069ZM5.34069 8.14312C5.34069 6.45849 6.70635 5.09284 8.39097 5.09284V4.89284C6.59589 4.89284 5.14069 6.34804 5.14069 8.14312H5.34069ZM8.39097 11.1934C6.70635 11.1934 5.34069 9.82774 5.34069 8.14312H5.14069C5.14069 9.9382 6.59589 11.3934 8.39097 11.3934V11.1934ZM11.4413 8.14312C11.4413 9.82774 10.0756 11.1934 8.39097 11.1934V11.3934C10.1861 11.3934 11.6413 9.9382 11.6413 8.14312H11.4413ZM8.39097 5.09284C10.0756 5.09284 11.4413 6.45849 11.4413 8.14312H11.6413C11.6413 6.34804 10.1861 4.89284 8.39097 4.89284V5.09284Z" fill="white"/>
</svg>
