<svg width="47" height="47" viewBox="0 0 47 47" fill="none" xmlns="http://www.w3.org/2000/svg">
<circle cx="23.5" cy="23.5" r="23" stroke="#E0E0E0"/>
<path d="M22.9996 33.8533C23.4195 33.8437 23.8225 33.6858 24.1373 33.4076C24.4521 33.1294 24.6583 32.7489 24.7196 32.3333H21.2129C21.2759 32.7602 21.4918 33.1497 21.8204 33.4293C22.1491 33.7089 22.5681 33.8596 22.9996 33.8533Z" fill="#C6C6C6"/>
<path d="M32.8994 29.7534L32.6727 29.5534C32.0297 28.9805 31.4668 28.3234 30.9994 27.6001C30.4889 26.6018 30.1829 25.5115 30.0994 24.3934V21.1001C30.0967 20.7 30.061 20.3009 29.9927 19.9067C28.8635 19.6746 27.8491 19.0594 27.1214 18.1653C26.3937 17.2711 25.9973 16.1529 25.9994 15.0001V14.5801C25.3033 14.2375 24.5555 14.0123 23.786 13.9134V13.0734C23.786 12.8374 23.6923 12.611 23.5254 12.4441C23.3585 12.2772 23.1321 12.1834 22.896 12.1834C22.66 12.1834 22.4336 12.2772 22.2667 12.4441C22.0998 12.611 22.006 12.8374 22.006 13.0734V13.9467C20.2832 14.1898 18.7064 15.0479 17.5669 16.3627C16.4273 17.6775 15.8019 19.3602 15.806 21.1001V24.3934C15.7226 25.5115 15.4166 26.6018 14.906 27.6001C14.4466 28.3216 13.8928 28.9786 13.2594 29.5534L13.0327 29.7534V31.6334H32.8994V29.7534Z" fill="#C6C6C6"/>
<path d="M30.9993 18.3334C32.8403 18.3334 34.3327 16.841 34.3327 15C34.3327 13.1591 32.8403 11.6667 30.9993 11.6667C29.1584 11.6667 27.666 13.1591 27.666 15C27.666 16.841 29.1584 18.3334 30.9993 18.3334Z" fill="#53B746"/>
</svg>
