<svg width="15" height="16" viewBox="0 0 15 16" fill="none" xmlns="http://www.w3.org/2000/svg">
<path d="M13.9805 12.1145C13.9805 12.3485 13.9285 12.589 13.818 12.823C13.7075 13.057 13.5645 13.278 13.376 13.486C13.0575 13.837 12.7065 14.0905 12.31 14.253C11.92 14.4155 11.4975 14.5 11.0425 14.5C10.3795 14.5 9.671 14.344 8.9235 14.0255C8.176 13.707 7.4285 13.278 6.6875 12.7385C5.94 12.1925 5.2315 11.588 4.5555 10.9185C3.886 10.2425 3.2815 9.534 2.742 8.793C2.209 8.052 1.78 7.311 1.468 6.5765C1.156 5.8355 1 5.127 1 4.451C1 4.009 1.078 3.5865 1.234 3.1965C1.39 2.8 1.637 2.436 1.9815 2.111C2.3975 1.7015 2.8525 1.5 3.3335 1.5C3.5155 1.5 3.6975 1.539 3.86 1.617C4.029 1.695 4.1785 1.812 4.2955 1.981L5.8035 4.1065C5.9205 4.269 6.005 4.4185 6.0635 4.5615C6.122 4.698 6.1545 4.8345 6.1545 4.958C6.1545 5.114 6.109 5.27 6.018 5.4195C5.9335 5.569 5.81 5.725 5.654 5.881L5.16 6.3945C5.0885 6.466 5.056 6.5505 5.056 6.6545C5.056 6.7065 5.0625 6.752 5.0755 6.804C5.095 6.856 5.1145 6.895 5.1275 6.934C5.2445 7.1485 5.446 7.428 5.732 7.766C6.0245 8.104 6.3365 8.4485 6.6745 8.793C7.0255 9.1375 7.3635 9.456 7.708 9.7485C8.046 10.0345 8.3255 10.2295 8.5465 10.3465C8.579 10.3595 8.618 10.379 8.6635 10.3985C8.7155 10.418 8.7675 10.4245 8.826 10.4245C8.9365 10.4245 9.021 10.3855 9.0925 10.314L9.5865 9.8265C9.749 9.664 9.905 9.5405 10.0545 9.4625C10.204 9.3715 10.3535 9.326 10.516 9.326C10.6395 9.326 10.7695 9.352 10.9125 9.4105C11.0555 9.469 11.205 9.5535 11.3675 9.664L13.519 11.1915C13.688 11.3085 13.805 11.445 13.8765 11.6075C13.9415 11.77 13.9805 11.9325 13.9805 12.1145Z" stroke="#53B746" stroke-width="1.2" stroke-miterlimit="10"/>
</svg>
