<svg width="12" height="12" viewBox="0 0 12 12" fill="none" xmlns="http://www.w3.org/2000/svg">
<path d="M5.62881 0.92434C5.76317 0.589753 6.23683 0.589752 6.37119 0.92434L7.45817 3.63116C7.51539 3.77364 7.64911 3.8708 7.8023 3.88118L10.7125 4.07851C11.0723 4.1029 11.2186 4.55338 10.9419 4.78456L8.7035 6.65479C8.58567 6.75324 8.5346 6.91044 8.57206 7.05934L9.2837 9.88811C9.37166 10.2378 8.98847 10.5162 8.6831 10.3245L6.21268 8.77352C6.08265 8.69188 5.91735 8.69188 5.78732 8.77352L3.3169 10.3245C3.01153 10.5162 2.62834 10.2378 2.7163 9.88812L3.42794 7.05934C3.4654 6.91044 3.41433 6.75324 3.2965 6.65479L1.05806 4.78456C0.781365 4.55338 0.927732 4.1029 1.28746 4.07851L4.1977 3.88118C4.35089 3.8708 4.48461 3.77364 4.54183 3.63116L5.62881 0.92434Z" fill="#53B746"/>
</svg>
