<svg width="38" height="38" viewBox="0 0 38 38" fill="none" xmlns="http://www.w3.org/2000/svg">
<mask id="path-1-inside-1_4548_10329" fill="white">
<path d="M29.2917 7.91667H25.2938C25.0942 5.75454 24.095 3.74469 22.4917 2.28047C20.8883 0.816243 18.7963 0.00303675 16.625 0L8.70833 0C6.39951 0.0025146 4.18597 0.920805 2.55339 2.55339C0.920805 4.18597 0.0025146 6.39951 0 8.70833L0 29.2917C0.0025146 31.6005 0.920805 33.814 2.55339 35.4466C4.18597 37.0792 6.39951 37.9975 8.70833 38H29.2917C31.6005 37.9975 33.814 37.0792 35.4466 35.4466C37.0792 33.814 37.9975 31.6005 38 29.2917V16.625C37.9975 14.3162 37.0792 12.1026 35.4466 10.4701C33.814 8.83747 31.6005 7.91918 29.2917 7.91667ZM4.75 29.2917V8.70833C4.75 7.65852 5.16704 6.6517 5.90937 5.90937C6.6517 5.16704 7.65852 4.75 8.70833 4.75H16.625C17.6748 4.75 18.6816 5.16704 19.424 5.90937C20.1663 6.6517 20.5833 7.65852 20.5833 8.70833V33.25H8.70833C7.65852 33.25 6.6517 32.833 5.90937 32.0906C5.16704 31.3483 4.75 30.3415 4.75 29.2917ZM33.25 29.2917C33.25 30.3415 32.833 31.3483 32.0906 32.0906C31.3483 32.833 30.3415 33.25 29.2917 33.25H25.3333V12.6667H29.2917C30.3415 12.6667 31.3483 13.0837 32.0906 13.826C32.833 14.5684 33.25 15.5752 33.25 16.625V29.2917ZM31.6667 18.2083C31.6667 18.6781 31.5274 19.1372 31.2664 19.5278C31.0054 19.9184 30.6345 20.2228 30.2005 20.4025C29.7666 20.5823 29.289 20.6293 28.8283 20.5377C28.3676 20.4461 27.9444 20.2199 27.6123 19.8877C27.2801 19.5556 27.0539 19.1324 26.9623 18.6717C26.8707 18.211 26.9177 17.7334 27.0975 17.2995C27.2772 16.8655 27.5816 16.4946 27.9722 16.2336C28.3628 15.9726 28.8219 15.8333 29.2917 15.8333C29.9216 15.8333 30.5256 16.0836 30.971 16.529C31.4164 16.9744 31.6667 17.5784 31.6667 18.2083ZM31.6667 26.125C31.6667 26.5947 31.5274 27.0539 31.2664 27.4445C31.0054 27.835 30.6345 28.1395 30.2005 28.3192C29.7666 28.499 29.289 28.546 28.8283 28.4544C28.3676 28.3627 27.9444 28.1365 27.6123 27.8044C27.2801 27.4722 27.0539 27.049 26.9623 26.5883C26.8707 26.1276 26.9177 25.6501 27.0975 25.2161C27.2772 24.7822 27.5816 24.4112 27.9722 24.1503C28.3628 23.8893 28.8219 23.75 29.2917 23.75C29.9216 23.75 30.5256 24.0002 30.971 24.4456C31.4164 24.891 31.6667 25.4951 31.6667 26.125ZM11.0833 10.2917C11.0833 10.7614 10.944 11.2206 10.6831 11.6111C10.4221 12.0017 10.0512 12.3061 9.61721 12.4859C9.18323 12.6656 8.7057 12.7127 8.24499 12.621C7.78429 12.5294 7.3611 12.3032 7.02895 11.971C6.6968 11.6389 6.47061 11.2157 6.37897 10.755C6.28733 10.2943 6.33436 9.81677 6.51412 9.38279C6.69388 8.94882 6.99829 8.5779 7.38885 8.31693C7.77942 8.05596 8.2386 7.91667 8.70833 7.91667C9.33822 7.91667 9.94231 8.16689 10.3877 8.61229C10.8331 9.05769 11.0833 9.66178 11.0833 10.2917V10.2917ZM11.0833 18.2083C11.0833 18.6781 10.944 19.1372 10.6831 19.5278C10.4221 19.9184 10.0512 20.2228 9.61721 20.4025C9.18323 20.5823 8.7057 20.6293 8.24499 20.5377C7.78429 20.4461 7.3611 20.2199 7.02895 19.8877C6.6968 19.5556 6.47061 19.1324 6.37897 18.6717C6.28733 18.211 6.33436 17.7334 6.51412 17.2995C6.69388 16.8655 6.99829 16.4946 7.38885 16.2336C7.77942 15.9726 8.2386 15.8333 8.70833 15.8333C9.33822 15.8333 9.94231 16.0836 10.3877 16.529C10.8331 16.9744 11.0833 17.5784 11.0833 18.2083V18.2083ZM19 10.2917C19 10.7614 18.8607 11.2206 18.5997 11.6111C18.3388 12.0017 17.9678 12.3061 17.5339 12.4859C17.0999 12.6656 16.6224 12.7127 16.1617 12.621C15.701 12.5294 15.2778 12.3032 14.9456 11.971C14.6135 11.6389 14.3873 11.2157 14.2956 10.755C14.204 10.2943 14.251 9.81677 14.4308 9.38279C14.6105 8.94882 14.915 8.5779 15.3055 8.31693C15.6961 8.05596 16.1553 7.91667 16.625 7.91667C17.2549 7.91667 17.859 8.16689 18.3044 8.61229C18.7498 9.05769 19 9.66178 19 10.2917ZM19 18.2083C19 18.6781 18.8607 19.1372 18.5997 19.5278C18.3388 19.9184 17.9678 20.2228 17.5339 20.4025C17.0999 20.5823 16.6224 20.6293 16.1617 20.5377C15.701 20.4461 15.2778 20.2199 14.9456 19.8877C14.6135 19.5556 14.3873 19.1324 14.2956 18.6717C14.204 18.211 14.251 17.7334 14.4308 17.2995C14.6105 16.8655 14.915 16.4946 15.3055 16.2336C15.6961 15.9726 16.1553 15.8333 16.625 15.8333C17.2549 15.8333 17.859 16.0836 18.3044 16.529C18.7498 16.9744 19 17.5784 19 18.2083ZM11.0833 26.125C11.0833 26.5947 10.944 27.0539 10.6831 27.4445C10.4221 27.835 10.0512 28.1395 9.61721 28.3192C9.18323 28.499 8.7057 28.546 8.24499 28.4544C7.78429 28.3627 7.3611 28.1365 7.02895 27.8044C6.6968 27.4722 6.47061 27.049 6.37897 26.5883C6.28733 26.1276 6.33436 25.6501 6.51412 25.2161C6.69388 24.7822 6.99829 24.4112 7.38885 24.1503C7.77942 23.8893 8.2386 23.75 8.70833 23.75C9.33822 23.75 9.94231 24.0002 10.3877 24.4456C10.8331 24.891 11.0833 25.4951 11.0833 26.125V26.125ZM19 26.125C19 26.5947 18.8607 27.0539 18.5997 27.4445C18.3388 27.835 17.9678 28.1395 17.5339 28.3192C17.0999 28.499 16.6224 28.546 16.1617 28.4544C15.701 28.3627 15.2778 28.1365 14.9456 27.8044C14.6135 27.4722 14.3873 27.049 14.2956 26.5883C14.204 26.1276 14.251 25.6501 14.4308 25.2161C14.6105 24.7822 14.915 24.4112 15.3055 24.1503C15.6961 23.8893 16.1553 23.75 16.625 23.75C17.2549 23.75 17.859 24.0002 18.3044 24.4456C18.7498 24.891 19 25.4951 19 26.125Z"/>
</mask>
<path d="M29.2917 7.91667H25.2938C25.0942 5.75454 24.095 3.74469 22.4917 2.28047C20.8883 0.816243 18.7963 0.00303675 16.625 0L8.70833 0C6.39951 0.0025146 4.18597 0.920805 2.55339 2.55339C0.920805 4.18597 0.0025146 6.39951 0 8.70833L0 29.2917C0.0025146 31.6005 0.920805 33.814 2.55339 35.4466C4.18597 37.0792 6.39951 37.9975 8.70833 38H29.2917C31.6005 37.9975 33.814 37.0792 35.4466 35.4466C37.0792 33.814 37.9975 31.6005 38 29.2917V16.625C37.9975 14.3162 37.0792 12.1026 35.4466 10.4701C33.814 8.83747 31.6005 7.91918 29.2917 7.91667ZM4.75 29.2917V8.70833C4.75 7.65852 5.16704 6.6517 5.90937 5.90937C6.6517 5.16704 7.65852 4.75 8.70833 4.75H16.625C17.6748 4.75 18.6816 5.16704 19.424 5.90937C20.1663 6.6517 20.5833 7.65852 20.5833 8.70833V33.25H8.70833C7.65852 33.25 6.6517 32.833 5.90937 32.0906C5.16704 31.3483 4.75 30.3415 4.75 29.2917ZM33.25 29.2917C33.25 30.3415 32.833 31.3483 32.0906 32.0906C31.3483 32.833 30.3415 33.25 29.2917 33.25H25.3333V12.6667H29.2917C30.3415 12.6667 31.3483 13.0837 32.0906 13.826C32.833 14.5684 33.25 15.5752 33.25 16.625V29.2917ZM31.6667 18.2083C31.6667 18.6781 31.5274 19.1372 31.2664 19.5278C31.0054 19.9184 30.6345 20.2228 30.2005 20.4025C29.7666 20.5823 29.289 20.6293 28.8283 20.5377C28.3676 20.4461 27.9444 20.2199 27.6123 19.8877C27.2801 19.5556 27.0539 19.1324 26.9623 18.6717C26.8707 18.211 26.9177 17.7334 27.0975 17.2995C27.2772 16.8655 27.5816 16.4946 27.9722 16.2336C28.3628 15.9726 28.8219 15.8333 29.2917 15.8333C29.9216 15.8333 30.5256 16.0836 30.971 16.529C31.4164 16.9744 31.6667 17.5784 31.6667 18.2083ZM31.6667 26.125C31.6667 26.5947 31.5274 27.0539 31.2664 27.4445C31.0054 27.835 30.6345 28.1395 30.2005 28.3192C29.7666 28.499 29.289 28.546 28.8283 28.4544C28.3676 28.3627 27.9444 28.1365 27.6123 27.8044C27.2801 27.4722 27.0539 27.049 26.9623 26.5883C26.8707 26.1276 26.9177 25.6501 27.0975 25.2161C27.2772 24.7822 27.5816 24.4112 27.9722 24.1503C28.3628 23.8893 28.8219 23.75 29.2917 23.75C29.9216 23.75 30.5256 24.0002 30.971 24.4456C31.4164 24.891 31.6667 25.4951 31.6667 26.125ZM11.0833 10.2917C11.0833 10.7614 10.944 11.2206 10.6831 11.6111C10.4221 12.0017 10.0512 12.3061 9.61721 12.4859C9.18323 12.6656 8.7057 12.7127 8.24499 12.621C7.78429 12.5294 7.3611 12.3032 7.02895 11.971C6.6968 11.6389 6.47061 11.2157 6.37897 10.755C6.28733 10.2943 6.33436 9.81677 6.51412 9.38279C6.69388 8.94882 6.99829 8.5779 7.38885 8.31693C7.77942 8.05596 8.2386 7.91667 8.70833 7.91667C9.33822 7.91667 9.94231 8.16689 10.3877 8.61229C10.8331 9.05769 11.0833 9.66178 11.0833 10.2917V10.2917ZM11.0833 18.2083C11.0833 18.6781 10.944 19.1372 10.6831 19.5278C10.4221 19.9184 10.0512 20.2228 9.61721 20.4025C9.18323 20.5823 8.7057 20.6293 8.24499 20.5377C7.78429 20.4461 7.3611 20.2199 7.02895 19.8877C6.6968 19.5556 6.47061 19.1324 6.37897 18.6717C6.28733 18.211 6.33436 17.7334 6.51412 17.2995C6.69388 16.8655 6.99829 16.4946 7.38885 16.2336C7.77942 15.9726 8.2386 15.8333 8.70833 15.8333C9.33822 15.8333 9.94231 16.0836 10.3877 16.529C10.8331 16.9744 11.0833 17.5784 11.0833 18.2083V18.2083ZM19 10.2917C19 10.7614 18.8607 11.2206 18.5997 11.6111C18.3388 12.0017 17.9678 12.3061 17.5339 12.4859C17.0999 12.6656 16.6224 12.7127 16.1617 12.621C15.701 12.5294 15.2778 12.3032 14.9456 11.971C14.6135 11.6389 14.3873 11.2157 14.2956 10.755C14.204 10.2943 14.251 9.81677 14.4308 9.38279C14.6105 8.94882 14.915 8.5779 15.3055 8.31693C15.6961 8.05596 16.1553 7.91667 16.625 7.91667C17.2549 7.91667 17.859 8.16689 18.3044 8.61229C18.7498 9.05769 19 9.66178 19 10.2917ZM19 18.2083C19 18.6781 18.8607 19.1372 18.5997 19.5278C18.3388 19.9184 17.9678 20.2228 17.5339 20.4025C17.0999 20.5823 16.6224 20.6293 16.1617 20.5377C15.701 20.4461 15.2778 20.2199 14.9456 19.8877C14.6135 19.5556 14.3873 19.1324 14.2956 18.6717C14.204 18.211 14.251 17.7334 14.4308 17.2995C14.6105 16.8655 14.915 16.4946 15.3055 16.2336C15.6961 15.9726 16.1553 15.8333 16.625 15.8333C17.2549 15.8333 17.859 16.0836 18.3044 16.529C18.7498 16.9744 19 17.5784 19 18.2083ZM11.0833 26.125C11.0833 26.5947 10.944 27.0539 10.6831 27.4445C10.4221 27.835 10.0512 28.1395 9.61721 28.3192C9.18323 28.499 8.7057 28.546 8.24499 28.4544C7.78429 28.3627 7.3611 28.1365 7.02895 27.8044C6.6968 27.4722 6.47061 27.049 6.37897 26.5883C6.28733 26.1276 6.33436 25.6501 6.51412 25.2161C6.69388 24.7822 6.99829 24.4112 7.38885 24.1503C7.77942 23.8893 8.2386 23.75 8.70833 23.75C9.33822 23.75 9.94231 24.0002 10.3877 24.4456C10.8331 24.891 11.0833 25.4951 11.0833 26.125V26.125ZM19 26.125C19 26.5947 18.8607 27.0539 18.5997 27.4445C18.3388 27.835 17.9678 28.1395 17.5339 28.3192C17.0999 28.499 16.6224 28.546 16.1617 28.4544C15.701 28.3627 15.2778 28.1365 14.9456 27.8044C14.6135 27.4722 14.3873 27.049 14.2956 26.5883C14.204 26.1276 14.251 25.6501 14.4308 25.2161C14.6105 24.7822 14.915 24.4112 15.3055 24.1503C15.6961 23.8893 16.1553 23.75 16.625 23.75C17.2549 23.75 17.859 24.0002 18.3044 24.4456C18.7498 24.891 19 25.4951 19 26.125Z" fill="#53B745" stroke="white" stroke-width="2" mask="url(#path-1-inside-1_4548_10329)"/>
</svg>
